<?xml version="1.0" standalone="no"?>
<!DOCTYPE svg PUBLIC "-//W3C//DTD SVG 1.1//EN" "http://www.w3.org/Graphics/SVG/1.1/DTD/svg11.dtd" >
<svg xmlns="http://www.w3.org/2000/svg">
<defs>
  <font id="DressCodeIcons" horiz-adv-x="864">
    <font-face font-family="DressCodeIcons"
      units-per-em="576" ascent="576"
      descent="0" />
    <missing-glyph horiz-adv-x="0" />
    <glyph glyph-name="add"
      unicode="&#xEA01;"
      horiz-adv-x="576" d="M324 324L324 576L252 576L252 324L0 324L0 252L252 252L252 0L324 0L324 252L576 252L576 324L324 324z" />
    <glyph glyph-name="arrow-down"
      unicode="&#xEA02;"
      horiz-adv-x="576" d="M550.616625 376.875L287.9853750000001 237.18825L25.38225 376.875L0 329.117625L254.228625 193.885875L288.0045 176.625L321.7713750000001 193.885875L576 329.117625z" />
    <glyph glyph-name="arrow-left"
      unicode="&#xEA03;"
      horiz-adv-x="576" d="M388.125 25.382813625L340.367212125 0L205.135756875 254.22869475L187.875 287.994979125L205.135756875 321.77130525L340.367212125 576L388.125 550.6171859250001L248.439164625 288.014473125C248.439164625 288.014473125 388.125 25.382813625 388.125 25.382813625z" />
    <glyph glyph-name="arrow-right"
      unicode="&#xEA04;"
      horiz-adv-x="576" d="M187.875 25.382813625L235.632787875 0L370.8642431250001 254.22869475L388.125 287.994979125L370.8642431250001 321.77130525L235.632787875 576L187.875 550.6171859250001L327.560835375 288.014473125C327.560835375 288.014473125 187.875 25.382813625 187.875 25.382813625L187.875 25.382813625z" />
    <glyph glyph-name="bar-chart"
      unicode="&#xEA06;"
      horiz-adv-x="576" d="M0.7273794760284 216.80817525C-0.5247300687216 219.9058323750001 0.7273794760284 223.02297225 3.6308218806534 224.38671975L36.8389444581535 239.972414625C26.4591379206534 301.906069875 35.5868349831534 366.489293625 62.5525563456535 422.6172795C130.6019880081535 562.0508029125 290.7631305081535 616.40591445 421.0551090081534 543.7960576875L385.7964300081535 509.0399575875C358.4133371331535 521.07990705 328.9433973831534 527.7427916625 299.4916038831534 527.7427916625C176.6578432581534 527.7427916625 77.0879148831534 421.2730125 77.0879148831534 289.418032125C77.0879148831534 279.61852725 77.9226545331534 269.81902125 78.7392477081534 260.0195152500001L109.4431512456534 274.2609431250001C110.6771143581535 275.1571215 113.1813326331534 276.033816 114.8326661331535 275.6052101250001C117.7361088831535 274.2609431250001 118.1534782581535 271.1438055 117.7361088831535 267.578577L104.4710061831535 144.60744375C104.4710061831535 143.2826595 104.0536363581534 142.38648225 103.2188965956534 141.509786625C101.5675637706534 138.82125375 98.2467514206534 138.3926467500001 95.7425323581535 140.16552075L2.7960821856534 214.119642375C1.9794890106534 214.58721375 1.1447493134034 215.463909375 0.7273794760284 216.80817525zM572.9232937581535 433.76105025C575.4275122581535 431.988177375 576.6614741331534 428.42295 574.9919955081534 425.734417125C574.5927712581534 424.838239875 574.1572556331535 423.96154425 573.3225168831534 423.513455625L543.0359823831535 404.810622C604.0264196331535 261.36378225 545.1046852581535 92.531739375 411.9092640081534 27.052338375C315.6420026331534 -20.6009234999999 202.3714541331535 -1.898089875 123.9422175081534 73.809423L156.7148231331535 106.344561375C250.4960122581535 22.142844 390.3330588831535 35.05948875 469.1615197581534 135.743079375C522.6937391331535 203.911012125 535.9769887581534 298.78893225 504.0209745081534 380.750205375L472.8997023831535 361.599283125C470.4136290081535 360.255016125 467.0928168831534 361.1511945 465.4414845081535 363.8202435C465.0241140081534 364.696939125 464.6067446331535 366.041205 464.6067446331535 366.937383375L464.6067446331535 491.213819025C464.6067446331535 494.330958 467.0928168831534 497.0000082375 469.9962596331535 497.0000082375C471.2302226331534 497.0000082375 472.0649613831534 496.5519195 472.8997023831535 496.1038307625L572.9232937581535 433.76105025zM431.0175442581534 362.9240673750001L431.0175442581534 238.647630375C431.0175442581534 230.17290975 424.7932893831534 223.938631125 417.3350726331535 223.938631125L383.3103566331535 223.938631125C375.8339925081535 223.938631125 369.6097376331535 230.17290975 369.6097376331535 238.647630375L369.6097376331535 362.9240673750001C369.6097376331535 370.9507005000001 375.8339925081535 377.633066625 383.3103566331535 377.633066625L417.3350726331535 377.633066625C424.7932893831534 377.633066625 431.0175442581534 370.9507005000001 431.0175442581534 362.9240673750001zM328.9433973831534 384.763521375L328.9433973831534 238.647630375C328.9433973831534 230.17290975 322.7191425081534 223.938631125 315.2609257581535 223.938631125L281.2362097581535 223.938631125C273.7598456331534 223.938631125 267.5537370081535 230.17290975 267.5537370081535 238.647630375L267.5537370081535 384.763521375C267.5537370081535 392.7901545 273.7779918831535 399.453039 281.2362097581535 399.453039L315.2609257581535 399.453039C322.7191425081534 399.453039 328.9433973831534 392.770672875 328.9433973831534 384.763521375zM226.8692505081535 296.996576625L226.8692505081535 238.647630375C226.8692505081535 230.17290975 220.6449956331534 223.938631125 213.1686315081535 223.938631125L179.1439155081535 223.938631125C171.2501808831535 223.938631125 165.4614438831535 230.17290975 165.4614438831535 238.647630375L165.4614438831535 296.996576625C165.4614438831535 305.02320975 171.2683282581534 311.705577 179.1439155081535 311.705577L213.1686315081535 311.705577C220.6449956331534 311.705577 226.8692505081535 305.0037270000001 226.8692505081535 296.996576625z" />
    <glyph glyph-name="arrow-up"
      unicode="&#xEA05;"
      horiz-adv-x="576" d="M287.994375 398.25L254.228625 380.989125L0 245.757375L25.38225 198L288.014625 337.685625L550.616625 198L576 245.757375L321.7713750000001 380.989125z" />
    <glyph glyph-name="check"
      unicode="&#xEA07;"
      horiz-adv-x="576" d="M189.778834125 21.888L576 483.3984528L501.177344625 546.048L189.326968875 170.867433375L73.5258904875 303.628122L0 239.46083325L189.778834125 21.888z" />
    <glyph glyph-name="clear"
      unicode="&#xEA08;"
      horiz-adv-x="576" d="M288 0C447.0580080000001 0 576 128.941992 576 288C576 447.058008 447.0580080000001 576 288 576C128.941992 576 0 447.058008 0 288C0 128.941992 128.941992 0 288 0zM288.0045315 241.77901275C272.1008103750001 226.50874875 256.806588375 212.5105515 242.12165175 199.784221875C220.416868125 180.9743175 198.203765625 162.379765125 175.48167825 144L144.3618585 175.119818625C162.50038425 198.0831465 181.047715875 220.490262 200.004409125 242.34183675C212.769219375 257.055964875 226.69402275 272.2737735 241.779015 287.9954685C226.508749875 303.899189625 212.5105515 319.193411625 199.784221875 333.87834825C180.974320875 355.583131875 162.37976625 377.796234375 144 400.5183217500001L175.11981975 431.6381415C198.083147625 413.49961575 220.490263125 394.952284125 242.341839 375.995590875C257.055966 363.230780625 272.2737735 349.30597725 287.995471875 334.220985C303.899191875 349.491250125 319.193411625 363.4894485 333.8783505 376.2157781250001C355.583133 395.025679125 377.7962355 413.62023375 400.518324 432L431.638142625 400.88018025C413.499616875 377.916852375 394.952286375 355.5097368750001 375.995590875 333.658161C363.230782875 318.944034 349.3059783750001 303.7262265 334.22098725 288.0045281250001C349.49125125 272.100808125 363.4894485000001 256.806588375 376.215778125 242.1216495C395.0256825 220.416867 413.6202348750001 198.2037645 432 175.4816760000001L400.880181375 144.361857375C377.9168535 162.5003831250001 355.509738 181.047713625 333.6581632500001 200.004409125C318.9440351250001 212.769217125 303.7262265 226.694021625 288.0045315 241.77901275z" />
    <glyph glyph-name="cog"
      unicode="&#xEA0A;"
      horiz-adv-x="576" d="M288.0000001333157 180L288.0000001333157 180L288.0000001333157 180L288.0000001333157 180C347.6467531333157 180 396.0000001333157 228.353247 396.0000001333157 288C396.0000001333157 347.646753 347.6467531333157 396 288.0000001333157 396C228.3532471333157 396 180.0000001333157 347.646753 180.0000001333157 288C180.0000001333157 228.353247 228.3532471333157 180 288.0000001333157 180L288.0000001333157 180zM144.0000001333157 288C144.0000001333157 367.529004 208.4709961333157 432 288.0000001333157 432C367.5290041333157 432 432.0000001333157 367.529004 432.0000001333157 288C432.0000001333157 208.470996 367.5290041333157 144 288.0000001333157 144C208.4709961333157 144 144.0000001333157 208.470996 144.0000001333157 288zM399.0698652583157 466.990767675L420.1455421333157 517.871952225L426.2088623833158 480.508085925C422.3474416333157 484.9603412625 414.5854366333158 492.5826844875 404.5987632583158 500.1461847C396.7232705083157 506.1107628 388.8862842583157 510.8277366 381.5559563833158 513.8640579375C378.4496851333157 515.1507174 375.0376861333158 516.2987768625 371.3631683833157 517.298532075C356.7902941333158 521.2634895 340.6122811333158 522.4132254375 327.6132841333158 521.9079768C326.2732077583157 521.8460622 357.1030081333157 543.9850248375 357.1030081333157 543.9850248375L336.0294890083158 493.1090497125L326.1475992583157 469.252057725L300.3818502583157 470.964940875C296.2764575083158 471.237863625 292.1478605083157 471.375 288.0000001333157 471.375C283.8521397583158 471.375 279.7235427583157 471.237863625 275.6181500083157 470.964940875L249.8524010083157 469.252057725L239.9705112583157 493.1090497125L218.8969921333157 543.9850248375L249.6046512583158 521.8521969375C235.3877191333158 522.4132254375 219.2097061333157 521.2634895 204.6368318833157 517.298532075C200.9623141333158 516.2987768625 197.5503151333157 515.1507174 194.4440438833157 513.8640579375C187.1137160083158 510.8277366 179.2767297583157 506.1107628 171.4012370083157 500.1461847C161.4145636333157 492.5826844875 153.6525586333157 484.9603412625 149.7911378833158 480.508085925L155.8544581333157 517.871952225L176.9301350083157 466.990767675L186.8180581333157 443.119210875L167.3660318833157 426.11212575C161.1569656333157 420.68348325 155.3165168833157 414.8430345000001 149.8878743833157 408.63396825L132.8807892583157 389.181942L109.0092324583157 399.069865125L58.1280479083157 420.145542L95.4919142083157 426.20886225C91.0396588708157 422.3474415 83.4173156458157 414.5854365 75.8538154333157 404.598763125C69.8892373333157 396.723270375 65.1722635333157 388.886284125 62.1359421958157 381.55595625C60.8492827333157 378.449685 59.7012232708157 375.037686 58.7014680583157 371.36316825C54.7365106333157 356.790294 53.5867746958157 340.612281 54.0920233333157 327.613284C54.1539379333157 326.2732076250001 32.0149752958157 357.103008 32.0149752958157 357.103008L82.8909504208157 336.029488875L106.7479424083157 326.147599125L105.0350592583157 300.3818501250001C104.7621365083157 296.276457375 104.6250001333157 292.147860375 104.6250001333157 288C104.6250001333157 283.852139625 104.7621365083157 279.723542625 105.0350592583157 275.6181498750001L106.7479424083157 249.852400875L82.8909504208157 239.970511125L32.0149752958157 218.896992L54.1478031958157 249.604651125C53.5867746958157 235.387719 54.7365106333157 219.209706 58.7014680583157 204.63683175C59.7012232708157 200.962314 60.8492827333157 197.550315 62.1359421958157 194.44404375C65.1722635333157 187.113715875 69.8892373333157 179.276729625 75.8538154333157 171.401236875C83.4173156458157 161.4145635 91.0396588708157 153.6525585000001 95.4919142083157 149.79113775L58.1280479083157 155.854458L109.0092324583157 176.930134875L132.8807892583157 186.818058L149.8878743833157 167.3660317500001C155.3165168833157 161.1569655 161.1569656333157 155.31651675 167.3660318833157 149.8878742500001L186.8180581333157 132.880789125L176.9301350083157 109.009231875L155.8544581333157 58.128048L149.7911378833158 95.4919136250001C153.6525586333157 91.039658625 161.4145636333157 83.417315625 171.4012370083157 75.85381575C179.2767297583157 69.88923675 187.1137160083158 65.172263625 194.4440438833157 62.135942625C197.5503151333157 60.849282375 200.9623141333158 59.70122325 204.6368318833157 58.701468375C219.2097061333157 54.7365105 235.3877191333158 53.586774 248.3867161333158 54.09202275C249.7267925083157 54.15393825 218.8969921333157 32.0149755 218.8969921333157 32.0149755L239.9705112583157 82.890950625L249.8524010083157 106.7479425L275.6181500083157 105.035059125C279.7235427583157 104.762136375 283.8521397583158 104.625 288.0000001333157 104.625C292.1478605083157 104.625 296.2764575083158 104.762136375 300.3818502583157 105.035059125L326.1475992583157 106.7479425L336.0294890083158 82.890950625L357.1030081333157 32.0149755L326.3953490083158 54.1478036249999C340.6122811333158 53.586774 356.7902941333158 54.7365105 371.3631683833157 58.701468375C375.0376861333158 59.70122325 378.4496851333157 60.849282375 381.5559563833158 62.135942625C388.8862842583157 65.172263625 396.7232705083157 69.88923675 404.5987632583158 75.85381575C414.5854366333158 83.417315625 422.3474416333157 91.039658625 426.2088623833158 95.4919136250001L420.1455421333157 58.128048L399.0698652583157 109.009231875L389.1819421333157 132.880789125L408.6339683833157 149.8878742500001C414.8430346333158 155.31651675 420.6834833833157 161.1569655 426.1121258833157 167.3660317500001L443.1192110083157 186.818058L466.9907682583158 176.930134875L517.8719521333157 155.854458L480.5080865083157 149.79113775C484.9603415083157 153.6525585000001 492.5826845083157 161.4145635 500.1461843833158 171.401236875C506.1107633833157 179.276729625 510.8277365083157 187.113715875 513.8640575083157 194.44404375C515.1507177583157 197.550315 516.2987768833157 200.962314 517.2985317583157 204.63683175C521.2634896333157 219.209706 522.4132261333157 235.387719 521.9079773833157 248.386716C521.8460618833158 249.726792375 543.9850246333158 218.896992 543.9850246333158 218.896992L493.1090495083158 239.970511125L469.2520576333157 249.852400875L470.9649410083157 275.6181498750001C471.2378637583158 279.723542625 471.3750001333157 283.852139625 471.3750001333157 288C471.3750001333157 292.147860375 471.2378637583158 296.276457375 470.9649410083157 300.3818501250001L469.2520576333157 326.147599125L493.1090495083158 336.029488875L543.9850246333158 357.103008L521.8521965083157 326.395348875C522.4132261333157 340.612281 521.2634896333157 356.790294 517.2985317583157 371.36316825C516.2987768833157 375.037686 515.1507177583157 378.449685 513.8640575083157 381.55595625C510.8277365083157 388.886284125 506.1107633833157 396.723270375 500.1461843833158 404.598763125C492.5826845083157 414.5854365 484.9603415083157 422.3474415 480.5080865083157 426.20886225L517.8719521333157 420.145542L466.9907682583158 399.069865125L443.1192110083157 389.181942L426.1121258833157 408.63396825C420.6834833833157 414.8430345000001 414.8430346333158 420.68348325 408.6339683833157 426.11212575L389.1819421333157 443.119210875L399.0698652583157 466.990767675zM432.3295283833158 453.214164375L432.3295283833158 453.214164375L432.3295283833158 453.214164375C439.7488730083157 446.727362625 446.7273627583157 439.748872875 453.2141645083157 432.32952825L504.0953483833157 453.405205125C504.0953483833157 453.405205125 533.7071517583158 427.7230245 547.1237217583157 395.33256C560.5402906333156 362.942094375 557.7616283833158 323.843344875 557.7616283833158 323.843344875L506.8856532583157 302.76982575C507.2101595083157 297.8885013750001 507.3750001333157 292.963501125 507.3750001333157 288C507.3750001333157 283.036498875 507.2101595083157 278.111498625 506.8856532583157 273.23017425L557.7616283833158 252.156655125C557.7616283833158 252.156655125 560.5402906333156 213.057905625 547.1237217583157 180.66744C533.7071517583158 148.2769755 504.0953483833157 122.594794875 504.0953483833157 122.594794875L453.2141645083157 143.67047175C446.7273627583157 136.2511271250001 439.7488730083157 129.2726373750001 432.3295283833158 122.785835625L453.4052052583157 71.90465175C453.4052052583157 71.90465175 427.7230246333158 42.292848375 395.3325601333157 28.876278375C362.9420945083158 15.4597095 323.8433450083158 18.2383717499999 323.8433450083158 18.2383717499999L302.7698258833157 69.114346875C297.8885015083158 68.789840625 292.9635012583157 68.625 288.0000001333157 68.625C283.0364990083158 68.625 278.1114987583157 68.789840625 273.2301743833158 69.114346875L252.1566552583158 18.2383717499999C252.1566552583158 18.2383717499999 213.0579057583157 15.4597095 180.6674401333157 28.876278375C148.2769756333158 42.292848375 122.5947950083157 71.90465175 122.5947950083157 71.90465175L143.6704718833157 122.785835625C136.2511272583157 129.2726373750001 129.2726375083158 136.2511271250001 122.7858357583157 143.67047175L71.9046515458157 122.594794875C71.9046515458157 122.594794875 42.2928489583157 148.2769755 28.8762790708157 180.66744C15.4597090708157 213.057905625 18.2383716583157 252.156655125 18.2383716583157 252.156655125L69.1143468958157 273.23017425C68.7898409833157 278.111498625 68.6250001333157 283.036498875 68.6250001333157 288C68.6250001333157 292.963501125 68.7898409833157 297.8885013750001 69.1143468958157 302.76982575L18.2383716583157 323.843344875C18.2383716583157 323.843344875 15.4597090708157 362.942094375 28.8762790708157 395.33256C42.2928489583157 427.7230245 71.9046515458157 453.405205125 71.9046515458157 453.405205125L122.7858357583157 432.32952825C129.2726375083158 439.748872875 136.2511272583157 446.727362625 143.6704718833157 453.214164375L122.5947950083157 504.0953485875C122.5947950083157 504.0953485875 148.2769756333158 533.707151175 180.6674401333157 547.1237210625C213.0579057583157 560.5402910625 252.1566552583158 557.761628475 252.1566552583158 557.761628475L273.2301743833158 506.8856532375C278.1114987583157 507.21015915 283.0364990083158 507.375 288.0000001333157 507.375C292.9635012583157 507.375 297.8885015083158 507.21015915 302.7698258833157 506.8856532375L323.8433450083158 557.761628475C323.8433450083158 557.761628475 362.9420945083158 560.5402910625 395.3325601333157 547.1237210625C427.7230246333158 533.707151175 453.4052052583157 504.0953485875 453.4052052583157 504.0953485875L432.3295283833158 453.214164375z" />
    <glyph glyph-name="close"
      unicode="&#xEA09;"
      horiz-adv-x="576" d="M288.009058500001 195.55803C256.201618500001 165.017498625 225.613175625001 137.021103 196.243301250001 111.56844375C152.833735125001 73.948640625 108.407531250001 36.7595313750001 62.963355487501 0L0.723716728876 62.239638375C37.000768162501 108.16629525 74.095431187501 152.98052625 112.008818925001 196.68367575C137.538438750001 226.111930875 165.388044375001 256.547545875 195.558030000001 287.9909415C165.017498625001 319.7983815 137.021103000001 350.386824375 111.568444087501 379.75669875C73.948641075001 423.166264875 36.759531600001 467.59246875 -1e-12 513.0366445125L62.239638712501 575.276283271125C108.166294687501 538.9992318375 152.980526250001 501.9045688125 196.683675750001 463.991181075C226.111930875001 438.4615612500001 256.547545875001 410.611955625 287.990941500001 380.44197C319.798381500001 410.982501375 350.386824375001 438.978897 379.756698750001 464.4315559125C423.166264875001 502.051358925 467.5924687500009 539.2404684 513.036644625001 576L575.2762830000011 513.7603612875C538.9992315000011 467.8337053125 501.9045682500009 423.01947375 463.9911806250009 379.31632425C438.461561250001 349.888069125 410.611955625001 319.4524541250001 380.441970000001 288.0090585C410.982501375001 256.2016185 438.978897000001 225.613175625 464.431556250001 196.24330125C502.051359375001 152.833735125 539.240468625001 108.40753125 576.000000000001 62.963355375L513.760361625001 0.723717C467.833704750001 37.0007684999999 423.019473750001 74.0954317500001 379.316324250001 112.008819375C349.888069125001 137.53843875 319.452454125001 165.388044375 288.009058500001 195.55803L288.009058500001 195.55803zM288.159998625001 287.2396271250001L287.559625500001 287.840001375L288.159998625001 288.4403745L288.760372875001 287.840001375L288.159998625001 287.2396271250001L288.159998625001 287.2396271250001z" />
    <glyph glyph-name="contact"
      unicode="&#xEA0B;"
      horiz-adv-x="576" d="M361.0492394295001 145.735725C328.7330044295001 100.736668 265.8095434295 71.581037 192.5804484295001 72.004826C167.2550934295001 71.28635 149.2194774295001 72.498532 131.3726964295001 77.013292L140.7776664295001 78.53531C140.2816694295 78.218332 139.4433344295001 77.707367 138.2740754295001 77.030501C136.4131254295001 75.953225 134.2448054295001 74.766783 131.7804504295 73.499363C124.8362974295 69.927981 116.8493364295001 66.3752 107.9094974295 63.068599C82.4429980295001 53.6492430000001 54.3020126295 48.000002 24.2401481295 48L-0.2401554295 47.999999L14.7547881295 67.350371C29.2865839295 86.103071 40.2346219295 104.263347 51.6348774295 127.544649L55.1542491295 112.710995C19.9922650295 139.416106 0.2401474295 175.680939 0.2401474295 216C0.2401474295 261.904858 28.4861817295 302.398212 72.4252937295 328.657687C72.3080552295 331.066776 72.2460384295001 333.488482 72.2401824295 335.922106C72.4999793295 443.5071876 183.2105564295 528 322.2401474295001 528C462.2509984295 528 576.2401554295 443.002338 576.2401554295 335.893096C576.2401554295 287.083754 553.1801934295 241.826508 512.1542114295 207.303118C514.2401524295 203 533.5265944294999 170.928228 558.4420684295 139.462798L573.8534214295 120L549.0363144295 120.000002C509.3049304295 120.000004 472.1851454295 126.460746 438.6604344295 137.23754C426.8900274295001 141.021234 416.3899034295001 145.084905 407.2802504295001 149.165158C404.0575104295001 150.608637 403.2401524295001 151 400.0598764295001 152.607458C387.3671994295001 149.54804 374.3339804295001 147.250506 361.0492394295001 145.735725L361.0492394295001 145.735725zM398.4925664295 176.961308L403.1311344295001 178.151227C403.1311344295001 178.151227 407.5222294295001 175.704991 407.7952294295001 175.559881C408.2947774295 175.294353 408.9023934295 174.979492 409.6160904295001 174.619349C411.7105084295001 173.562471 414.2058764295001 172.372791 417.0862674295001 171.082651C425.4141304295001 167.352565 435.0951524295001 163.605897 446.0015644295001 160.099941C470.1812224295001 152.327191 496.4015614295 146.955667 524.1999814295 144.920031C515.2401434295 157.000004 482.2965414295001 214.350518 482.2965414295001 214.350518C482.2965414295001 214.350518 552.2401434295 264.000004 552.2401554295 335.893096C552.2401704295 427.951973 450.2711484295001 503.986637 322.2401474295001 503.986637C195.2531754295 503.986637 96.4640324295 428.5921018 96.2401126295001 335.922019C96.4639747295 242.939453 195.1946814295 167.569088 322.3601504295001 167.569088C348.7041814295001 167.569088 374.3295184295001 170.762823 398.4925664295 176.961308zM75.9538353295 302.43995C43.9876044295 280.434712 24.2401474295 249.589745 24.2401474295 216C24.2401474295 183.547079 40.2363057295 154.178177 69.6700461295 131.823599L77.5299605295001 125.854087L73.1894178295001 116.989944C65.2427582295 100.761485 57.4258563295 86.753408 48.5591150295 73.328637C66.2401467295 75 76.6437345295 77.093316 99.5838094295 85.578218C107.5862744295 88.538109 114.6931864295001 91.699425 120.8038454295001 94.842141C122.9086744295001 95.924656 132.2270094295001 101.553211 132.2270094295001 101.553211C161.2401474295001 98 192.3088084295 95.999804 192.3088084295 95.999804C248.7634994295001 95.67678 297.3192774295001 114.317783 327.4900284295001 143.593403C325.7827924295001 143.568298 324.0727754295001 143.555725 322.3601504295001 143.555725C197.9225094295001 143.555725 96.3036504295 211.051031 75.9538339295 302.439959L75.9538353295 302.43995z" />
    <glyph glyph-name="drag"
      unicode="&#xEA0C;"
      horiz-adv-x="576" d="M306.0000000432641 108L306.0000000432641 252L450.0000000432641 252L450.0000000432641 205.722075375C450.0000000432641 182.077371 461.8291804182641 173.174137875 476.1634860432641 185.612509125L547.2059569182641 247.25851425C561.655651543264 259.797011625 561.540261418264 280.226062125 547.2059569182641 292.664433375L476.1634860432641 354.310437375C461.7137914182641 366.848935875 450.0000000432641 358.01310825 450.0000000432641 334.200871125L450.0000000432641 288L306.0000000432641 288L306.0000000432641 432L352.2008711682641 432C376.0131082932641 432 384.8489359182641 443.7137913750001 372.3104374182641 458.163486L310.6644334182641 529.2059569875C298.2260621682641 543.5402619375 277.797011668264 543.6556511625 265.2585142932641 529.2059569875L203.612509168264 458.163486C191.174137918264 443.829180375 200.077371043264 432 223.722075418264 432L270.0000000432641 432L270.0000000432641 288L126.000000043264 288L126.000000043264 334.200871125C126.000000043264 358.01310825 114.286208443264 366.848935875 99.836514380764 354.310437375L28.794043055764 292.664433375C14.459738150764 280.226062125 14.344348903264 259.797011625 28.794043055764 247.25851425L99.836514380764 185.612509125C114.170819218264 173.174137875 126.000000043264 182.077371 126.000000043264 205.722075375L126.000000043264 252L270.0000000432641 252L270.0000000432641 108L223.722075418264 108C200.077371043264 108 191.174137918264 96.170819625 203.612509168264 81.836514L265.2585142932641 10.7940431249999C277.797011668264 -3.6556515 298.2260621682641 -3.540261375 310.6644334182641 10.7940431249999L372.3104374182641 81.836514C384.8489359182641 96.286208625 376.0131082932641 108 352.2008711682641 108L306.0000000432641 108z" />
    <glyph glyph-name="error"
      unicode="&#xEA0D;"
      horiz-adv-x="576" d="M218.51748225 288C195.667875 311.8734135 174.648895875 334.8384367500001 155.832168375 356.727272625C127.295699625 389.479383 99.3750654375 422.83344375 72 457.17482475L118.82517525 504C152.985441375 476.44382025 186.630823125 448.594093125 219.272727375 420.167831625C241.536016125 400.96270125 264.3862995 380.05392825 288 357.48251775C311.8734135000001 380.332125 334.83843675 401.351104125 356.727272625 420.167831625C389.479383 448.704300375 422.83344375 476.6249345625 457.17482475 504L504 457.17482475C476.44382025 423.014558625 448.5940931250001 389.369176875 420.167831625 356.727272625C400.96270125 334.463983875 380.05392825 311.6137005 357.4825177500001 288C380.332125 264.1265865 401.351104125 241.1615632500001 420.167831625 219.272727375C448.704300375 186.520617 476.624934 153.16655625 504 118.82517525L457.17482475 72C423.014558625 99.55617975 389.369176875 127.405906875 356.727272625 155.832168375C334.463983875 175.03729875 311.6137005 195.94607175 288 218.51748225C264.1265865000001 195.6678750000001 241.16156325 174.648895875 219.272727375 155.832168375C186.520617 127.295699625 153.16655625 99.375066 118.82517525 72L72 118.82517525C99.55617975 152.985441375 127.405906875 186.630823125 155.832168375 219.272727375C175.03729875 241.536016125 195.94607175 264.3862995 218.51748225 288L218.51748225 288L218.51748225 288L218.51748225 288zM287.244754875 287.244754875L288 288L288.755245125 287.244754875L288 286.489510875L287.244754875 287.244754875L287.244754875 287.244754875L287.244754875 287.244754875L287.244754875 287.244754875z" />
    <glyph glyph-name="eye"
      unicode="&#xEA0E;"
      horiz-adv-x="576" d="M295.0677 395.943222375C414.796962375 394.018875 514.183073625 343.4644395000001 540 288C513.74951325 224.228475 410.94789525 180 288 180C165.05210475 180 63.375486525 224.228478375 37.125 288C62.93233125 343.443823875 161.172835875 393.981294375 280.8000855 395.9410567500001C224.497071 392.259686625 179.969059125 345.417813 179.969059125 288.174076875C179.969059125 228.527323875 228.313994625 180.174076875 287.950494375 180.174076875C347.586994125 180.174076875 395.931929625 228.527323875 395.931929625 288.174076875C395.931929625 299.242837125 394.267078125 309.92268375 391.174167375 319.9767862500001L391.174167375 319.9767862500001C382.7091836250001 301.22460675 363.848992875 288.174076875 341.941212 288.174076875C312.122962125 288.174076875 287.950494375 312.3507003750001 287.950494375 342.174076875C287.950494375 364.08562425 300.998779875 382.94905725 319.74773625 391.41549675C311.867503875 393.84050175 303.602801625 395.387773875 295.0677 395.943222375zM576 288C576 288 538.875 432 288 432C37.125 432 0 288 0 288C0 288 36 144 288 144C540 144 576 288 576 288z" />
    <glyph glyph-name="help"
      unicode="&#xEA0F;"
      horiz-adv-x="576" d="M288 36C427.1625 36 540 148.8375 540 288S427.1625 540 288 540S36 427.1625 36 288S148.8375 36 288 36zM288 0C128.9475 0 0 128.9475 0 288S128.9475 576 288 576S576 447.0525 576 288S447.0525 0 288 0zM193.5 352.485C193.5 364.5225 197.37 376.74 205.0875 389.10375C212.85 401.47875 224.1225 411.71625 238.95 419.8162500000001C253.8 427.9500000000001 271.125 432 290.9025 432C309.29625 432 325.5300000000001 428.6025 339.615 421.81875C353.6775 415.035 364.5562500000001 405.81 372.24 394.14375C379.89 382.4775 383.7375 369.79875 383.7375 356.09625C383.7375 345.31875 381.5325000000001 335.86875 377.15625 327.7462500000001C372.79125 319.64625 367.59375 312.6375 361.56375 306.7425C355.48875 300.83625 344.68875 290.9137500000001 329.05125 276.9637500000001C324.6637500000001 273.0262500000001 321.2887500000001 269.5387500000001 318.70125 266.5012500000001C316.11375 263.4637500000001 314.08875 260.76375 312.8512500000001 258.2887500000001C311.5350000000001 255.8137500000001 310.6012500000001 253.3387500000001 309.85875 250.86375C309.18375 248.38875 308.115 244.02375 306.70875 237.81375C304.30125 224.6175 296.76375 218.01375 284.09625 218.01375C277.48125 218.01375 271.94625 220.17375 267.44625 224.4825S260.69625 235.17 260.69625 243.675C260.69625 254.34 262.3275 263.565 265.64625 271.35C268.9425 279.16875 273.31875 286.00875 278.80875 291.915C284.20875 297.81 291.63375 304.81875 300.85875 312.9525C308.95875 320.04 314.80875 325.395 318.4312500000001 329.04C322.03125 332.64 325.06875 336.69 327.5437500000001 341.0775C330.01875 345.5325 331.25625 350.3475 331.25625 355.55625C331.25625 365.68125 327.4875 374.23125 319.9387500000001 381.20625C312.4012500000001 388.18125 302.6587500000001 391.6687500000001 290.7337500000001 391.6687500000001C276.7837500000001 391.6687500000001 266.5462500000001 388.18125 259.9087500000001 381.15C253.3500000000001 374.11875 247.7587500000001 363.7575 243.2025000000001 350.0550000000001C238.8712500000001 335.7225000000001 230.7150000000001 328.5675 218.6775000000001 328.5675C211.5450000000001 328.5675 205.5487500000001 331.07625 200.6775000000001 336.105C195.7837500000001 341.1 193.3650000000001 346.5225000000001 193.3650000000001 352.35zM286.3350000000001 144C278.5950000000001 144 271.8450000000001 146.50875 266.0850000000001 151.515C260.3025 156.52125 257.4225 163.53 257.4225 172.53C257.4225 180.5175000000001 260.20125 187.245 265.7812500000001 192.70125C271.3612500000001 198.1012500000001 278.2125000000001 200.80125 286.3350000000001 200.80125C294.3225000000001 200.80125 301.0387500000001 197.98875 306.4950000000001 192.58875C311.9512500000001 187.07625 314.6737500000001 180.36 314.6737500000001 172.36125C314.6737500000001 163.47375 311.8612500000001 156.49875 306.1237500000001 151.43625C300.4987500000001 146.37375 293.8612500000001 143.83125 286.4362500000001 143.83125z" />
    <glyph glyph-name="history"
      unicode="&#xEA10;"
      horiz-adv-x="576" d="M0 288C0 447.058008 128.941992 576 288 576C447.0580080000001 576 576 447.058008 576 288C576 128.941992 447.0580080000001 0 288 0C128.941992 0 0 128.941992 0 288zM288 72C407.2935060000001 72 504 168.706494 504 288C504 407.293506 407.2935060000001 504 288 504C168.706494 504 72 407.293506 72 288C72 168.706494 168.706494 72 288 72zM324 324L324 396L324 432L252 432L252 396L252 288L252 252L306 252L360 252L396 252L396 324L360 324L324 324z" />
    <glyph glyph-name="info-circle"
      unicode="&#xEA11;"
      horiz-adv-x="576" d="M288 0C447.0580080000001 0 576 128.941992 576 288C576 447.058008 447.0580080000001 576 288 576C128.941992 576 0 447.058008 0 288C0 128.941992 128.941992 0 288 0zM260.5090905 324.65454525L324.65454525 324.65454525L324.65454525 107.34545475L260.5090905 107.34545475L233.018182125 107.34545475L233.018182125 143.563636125L251.34545475 143.563636125L251.34545475 288.436363875L233.018182125 288.436363875L233.018182125 324.65454525L260.5090905 324.65454525L260.5090905 324.65454525zM251.34545475 468.654545475L324.65454525 468.654545475L324.65454525 395.34545475L251.34545475 395.34545475L251.34545475 468.654545475z" />
    <glyph glyph-name="info"
      unicode="&#xEA12;"
      horiz-adv-x="576" d="M342 396L342 72L360 72L360 0L216 0L216 72L234 72L234.141159375 324L216 324L216 396L342 396zM216 504.4528301625C216 525.5850112875 222.899931 542.7923864625 236.7 556.0754717249999C250.500069 569.35855697625 267.599898 576 288 576C307.8000990000001 576 324.7499295 569.35855697625 338.85 556.0754717249999C352.9500705000001 542.7923864625 360 525.5850112875 360 504.4528301625C360 483.3206490375 352.9500705000001 465.96233205 338.85 452.377359C324.7499295 438.792384375 307.8000990000001 432 288 432C267.599898 432 250.500069 438.792384375 236.7 452.377359C222.899931 465.96233205 216 483.3206490375 216 504.4528301625L216 504.4528301625z" />
    <glyph glyph-name="line-chart"
      unicode="&#xEA13;"
      horiz-adv-x="828.4044943820224" d="M725.1934425168539 576C669.0611164044943 576 622.887751011236 530.0281690786517 622.887751011236 474.1408450516854C622.887751011236 441.6901408719101 638.2788722696629 412.8450698426966 661.8182351460674 393.9154932134832L568.566144 274.9295778876405C560.4179039999999 276.7323947865169 551.3643020224719 278.5352116853933 543.2160620224719 278.5352116853933C530.5410202247191 278.5352116853933 518.7713387865168 275.8309855280899 507.9070177078652 272.2253517303371L389.3048445842697 348.8450707415731C398.3584449438202 364.1690135730337 403.790605483146 381.2957749213483 403.790605483146 400.2253515505618C403.790605483146 456.1126760629213 357.6172400898876 502.0845069842696 301.4849139775281 502.0845069842696C245.3525878651685 502.0845069842696 199.1792224719101 456.1126760629213 199.1792224719101 400.2253515505618C199.1792224719101 370.47887352809 211.8542642696629 343.4366200449438 232.6775460674157 324.5070417977528L140.3308159280899 196.5070419775281C128.5611346516854 201.0140850337079 115.8860931775281 203.7183095730337 102.3056916674157 203.7183095730337C46.1733652314607 203.7183095730337 0 157.7464794606742 0 101.8591555955056C0 45.971831730337 46.1733652314607 0 102.3056916674157 0C158.4380181033708 0 204.611383011236 45.971831730337 204.611383011236 101.8591555955056C204.611383011236 124.394366022472 196.463143011236 146.0281688089888 183.7881012134832 163.1549301573034L283.3777116404495 300.1690144719102C289.7152325393259 299.2676052134832 296.0527534382022 298.3661975730337 302.3902743370787 298.3661975730337C319.5921163146067 298.3661975730337 334.9832375730337 302.873239011236 349.4690000898877 310.0845066067416L461.7336523146067 237.070423011236C449.0586105168539 219.9436616629213 440.910370516854 199.2112681348315 440.910370516854 176.6760560898877C440.910370516854 120.7887322247191 487.0837359101124 74.8169021123595 543.2160620224719 74.8169021123595C599.3483881348315 74.8169021123595 645.5217535280898 120.7887322247191 645.5217535280898 176.6760560898877C645.5217535280898 203.7183095730337 634.6574324494383 228.9577461573034 616.5502301123596 246.9859151460675L716.1398421573034 373.1830980674157C719.7612819775281 373.1830980674157 722.4773630561797 372.2816904269663 726.0988028764045 372.2816904269663C782.231128988764 372.2816904269663 828.4044943820224 418.2535211865169 828.4044943820224 474.1408450516854C828.4044943820224 530.0281690786517 782.231128988764 576 725.1934425168539 576zM103.1035809438202 55.8185565842697C76.6895433168539 55.8185565842697 54.8296500134831 77.3303250337079 54.8296500134831 103.3237116404495C54.8296500134831 129.3170982471911 76.6895433168539 150.8288666966292 103.1035809438202 150.8288666966292C112.211869752809 150.8288666966292 121.3201587235955 148.1398948314607 128.6067897707865 143.6582766741573C129.5176187325843 141.8656287640449 131.339276494382 140.9693048089888 133.1609342561798 139.176658516854C134.0717630561798 138.2803345617978 135.8934208179775 137.3840106067416 136.8042497797753 136.4876866516854C145.9125385887641 127.5244503370787 151.3775118741573 115.8722421573033 151.3775118741573 103.3237116404495C150.4666830741573 76.4340010786517 129.5176187325843 55.8185565842697 103.1035809438202 55.8185565842697zM253.8851185617978 400.2309271011236C253.8851185617978 426.2243143550562 275.7450110561798 447.7360824808989 302.1590491685393 447.7360824808989C328.5730872808989 447.7360824808989 350.4329797752809 426.2243143550562 350.4329797752809 400.2309271011236C350.4329797752809 374.2375421123596 328.5730872808989 352.7257736629214 302.1590491685393 352.7257736629214C275.7450110561798 352.7257736629214 253.8851185617978 374.2375421123596 253.8851185617978 400.2309271011236zM542.9327298876404 129.4515457078651C516.5186917752809 129.4515457078651 494.6587992808989 150.9633141573034 494.6587992808989 176.9567007640449C494.6587992808989 202.9500873707865 516.5186917752809 224.4618558202248 542.9327298876404 224.4618558202248C569.346768 224.4618558202248 591.2066604943819 202.9500873707865 591.2066604943819 176.9567007640449C591.2066604943819 150.9633141573034 569.346768 129.4515457078651 542.9327298876404 129.4515457078651zM725.3009134382022 427.5463917842697C698.8868753258427 427.5463917842697 677.0269828314607 449.0581599101124 677.0269828314607 475.0515463550562C677.0269828314607 501.0449329617978 698.8868753258427 522.5567010876405 725.3009134382022 522.5567010876405C751.7149515505618 522.5567010876405 773.5748440449438 501.0449329617978 773.5748440449438 475.0515463550562C773.5748440449438 449.0581599101124 751.7149515505618 427.5463917842697 725.3009134382022 427.5463917842697z" />
    <glyph glyph-name="link"
      unicode="&#xEA14;"
      horiz-adv-x="576" d="M243.2167497469583 306.8563600537476L194.7277037326272 258.3673140394165C179.4944938602441 257.9290948648245 164.392290103153 251.8967542749883 152.7658280980728 240.2702922699081L152.7658280980728 240.2702922699081L105.0361203679808 192.5405845398161L105.0361203679808 192.5405845398161C80.8724298482426 168.3768940200779 80.8724298482426 129.1998108877191 105.0361203679808 105.0361203679808C129.19981072862 80.8724300073416 168.3768940200778 80.8724298482426 192.5405845398161 105.0361203679808L240.2702922699081 152.7658280980728C251.8967542749884 164.3922901031531 257.9290948648245 179.4944938602441 258.3673140394165 194.7277037326272L306.8563600537476 243.2167497469583C325.7726861212969 201.7284594094337 318.1614094114782 151.1074323561563 284.0225243558257 116.9685473005038L228.3378653373851 61.2838882820632C184.4038825019069 17.349905446585 113.17282240589 17.349905446585 69.2388395704119 61.2838882820632L61.2838882820632 69.2388395704119C17.349905446585 113.1728224058901 17.349905446585 184.4038825019069 61.2838882820632 228.3378653373851L61.2838882820632 228.3378653373851L116.9685473005038 284.0225243558257L116.9685473005038 284.0225243558257C151.1074323561564 318.1614094114783 201.7284593298841 325.7726862008464 243.2167443375914 306.8563559171728zM332.7832502530418 269.1436399462525L381.2722962673728 317.6326859605835C396.5055061397561 318.0709051351755 411.607709896847 324.1032457250117 423.2341719019273 335.729707730092L470.9638796320193 383.4594154601839C495.1275699926584 407.6231058208231 495.1275699926584 446.8001892713799 470.9638796320192 470.9638796320191L470.9638796320192 470.9638796320191C446.800189112281 495.1275701517574 407.6231058208232 495.1275699926583 383.459415460184 470.9638796320191L383.459415460184 470.9638796320191L335.729707730092 423.2341719019272L335.729707730092 423.2341719019272C324.1032457250118 411.607709896847 318.0709051351756 396.505506139756 317.6326859605835 381.2722962673728L269.1436399462525 332.7832502530418C250.2273137991537 374.271540670116 257.8385905885218 424.8925676438437 291.9774756441744 459.0314526994962L291.9774756441744 459.0314526994962L347.662134662615 514.7161117179368L347.662134662615 514.7161117179368C391.5961174980932 558.650094553415 462.82717759411 558.650094553415 506.7611604295882 514.7161117179368L514.7161117179369 506.7611604295881C558.650094553415 462.8271775941099 558.650094553415 391.5961174980931 514.7161117179368 347.6621346626149L459.0314526994962 291.9774756441743C424.8925676438437 257.8385905885218 374.2715405905664 250.2273138787031 332.7832558215078 269.1436439237282zM180.6081576072931 212.4279627606878L363.5720372393123 395.3918423927069L363.5720372393123 395.3918423927069C372.358833806408 404.1786389598026 386.6050458256114 404.1786389598026 395.391842392707 395.3918423927069C404.1786389598026 386.6050458256113 404.1786389598026 372.3588338064079 395.391842392707 363.5720372393123L212.4279627606878 180.6081576072932C203.6411661935921 171.8213610401975 189.3949541743887 171.8213610401975 180.6081576072931 180.6081576072932C171.8213610401975 189.3949541743888 171.8213610401975 203.6411661935921 180.6081576072931 212.4279627606878z" />
    <glyph glyph-name="lock"
      unicode="&#xEA15;"
      horiz-adv-x="576" d="M108 360L83.9975907375 360C57.4950214125 360 36 338.508120375 36 311.996543625L36 48.003456375C36 21.49374375 57.4892533125 0 83.9975907375 0L492.002409375 0C518.50497825 0 540 21.491879625 540 48.003456375L540 311.996543625C540 338.50625625 518.510746125 360 492.002409375 360L468 360L468 384.75C468 490.1664004875 387.4112550000001 576 288 576C188.588745 576 108 490.1664004875 108 384.75L108 360zM180 360C180 360 180 380.913287625 180 394.434952875C180 454.946058 228.353247 504 288 504C347.646753 504 396 454.946058 396 394.434952875C396 381.307986 396 360 396 360" />
    <glyph glyph-name="menu"
      unicode="&#xEA16;"
      horiz-adv-x="576" d="M108.17578125 444.375L467.82421875 444.375L479.8125 444.375L479.8125 468L467.82421875 468L108.17578125 468L96.1875 468L96.1875 444.375L108.17578125 444.375L108.17578125 444.375zM108.5625 275.625L467.4375 275.625L479.8125 275.625L479.8125 299.25L467.4375 299.25L108.5625 299.25L96.1875 299.25L96.1875 275.625L108.5625 275.625L108.5625 275.625zM108.17578125 108L467.82421875 108L479.8125 108L479.8125 131.625L467.82421875 131.625L108.17578125 131.625L96.1875 131.625L96.1875 108L108.17578125 108L108.17578125 108z" />
    <glyph glyph-name="minus"
      unicode="&#xEA17;"
      horiz-adv-x="576" d="M0 324L0 252L576 252L576 324z" />
    <glyph glyph-name="more"
      unicode="&#xEA18;"
      horiz-adv-x="576" d="M72 215.380125C111.764502 215.380125 144 247.6156230000001 144 287.380125C144 327.144627 111.764502 359.380125 72 359.380125C32.235498 359.380125 0 327.144627 0 287.380125C0 247.6156230000001 32.235498 215.380125 72 215.380125L72 215.380125L72 215.380125zM576 287.380125C576 327.144627 543.764502 359.380125 504 359.380125C464.235498 359.380125 432 327.144627 432 287.380125C432 247.6156230000001 464.235498 215.380125 504 215.380125C543.764502 215.380125 576 247.6156230000001 576 287.380125L576 287.380125zM288 215.380125C327.764502 215.380125 360 247.6156230000001 360 287.380125C360 327.144627 327.764502 359.380125 288 359.380125C248.235498 359.380125 216 327.144627 216 287.380125C216 247.6156230000001 248.235498 215.380125 288 215.380125L288 215.380125L288 215.380125z" />
    <glyph glyph-name="open-circle"
      unicode="&#xEA19;"
      horiz-adv-x="576" d="M491.6115 491.6025C439.480125 543.733875 367.480125 575.9955 288.0045 575.9955L288.0045 575.9955C129.05325 575.9955 0.0045 446.94675 0.0045 287.9955C0.0045 129.04425 129.05325 -0.0045 288.0045 -0.0045C446.205375 -0.0045 574.785 127.828125 575.9955 285.7455L524.24325 285.7455C523.033875 156.389625 417.643875 51.7455 288.0045 51.7455C157.61475 51.7455 51.7545 157.60575 51.7545 287.9955C51.7545 418.38525 157.61475 524.2455 288.0045 524.2455L288.0045 524.2455C353.199375 524.2455 412.261875 497.781 455.025375 455.016375L491.6115 491.6025z" />
    <glyph glyph-name="pencil"
      unicode="&#xEA1A;"
      horiz-adv-x="576" d="M87.7452154875 242.3395788750001L0 0L242.048984625 88.035809625L87.7452154875 242.3395788750001L87.7452154875 242.3395788750001zM63.5698947375 64.551373875L105.2299116 173.50834275L173.547316125 105.244813125L63.5698947375 64.551373875zM113.672696625 216.412097625L87.987846375 242.096947875L421.8908985000001 575.9999999999999L576 421.8908985L242.096947875 87.987846375L216.412097625 113.672696625L473.260599 370.521198L370.521198 473.260599225L113.672696625 216.412097625zM421.8908985000001 524.6302996125L396.20604825 498.945449475L498.94544925 396.20604825L524.6302995 421.8908985L421.8908985000001 524.6302996125z" />
    <glyph glyph-name="play"
      unicode="&#xEA1B;"
      horiz-adv-x="576" d="M288 0C447.0580080000001 0 576 128.941992 576 288C576 447.058008 447.0580080000001 576 288 576C128.941992 576 0 447.058008 0 288C0 128.941992 128.941992 0 288 0zM216 108L216 470.3999999625L432 289.200000375L216 108z" />
    <glyph glyph-name="pointer"
      unicode="&#xEA1C;"
      horiz-adv-x="576" d="M118.5431058363273 305.10981225C104.1049929738273 310.561441875 90.8520985488273 319.665481875 79.4309049363273 331.162482375C34.2669082863273 376.610716125 34.2669082863273 450.540563625 79.4309049363273 496.006789725C124.5769443363273 541.455023925 198.0245572113273 541.455023925 243.1705957113273 496.006789725C253.4424869613273 485.733257775 261.2721100863273 474.218265825 266.6594650863273 462.07354725L319.6530850863273 444.49519275C313.6372049613273 475.4057493375 299.1631765863273 505.1108302875 275.0816977113273 528.734556225C212.4806272113273 591.7431531375 110.1208733238273 591.7431531375 47.5198027113273 528.734556225C-15.0992257136727 465.7259592 -15.0992257136727 362.70276525 47.5198027113273 299.65818375C72.1759329363273 274.8469736250001 103.5123839238273 259.679570625 135.4234855863273 254.24593425L118.5431058363273 305.10981225zM559.8932238363273 315.419329125L166.1314124613273 447.553861875C155.8954368363273 451.152297 145.0488944613273 448.14760425 137.8298380863273 440.860773375C130.5928244613273 433.5739425000001 127.5938624613273 422.0769420000001 131.2033912113273 412.379159625L262.4573279613273 16.04752875C269.0658175863273 -3.9597705000001 296.1821729613273 -5.183238375 305.1970150863273 13.618585125L385.2890332113273 181.503570375C387.6953845863273 186.361457625 391.3049133363273 189.977884875 396.1355755863273 192.37084425L562.8921847113272 272.957796C580.9577834613272 281.486086875 579.1440404613272 308.76222375 559.8932238363273 315.419329125z" />
    <glyph glyph-name="redo"
      unicode="&#xEA1D;"
      horiz-adv-x="576" d="M288 397.836932625C124.291897875 370.138190625 1e-13 234.1985400000001 1e-13 70.672665375C1e-13 62.7920336249999 0.288663584625 54.9754694999999 0.856491114375 47.232C56.6766363375 148.941894375 162.955171125 221.49771075 288 234.678884625L288 112.212968625L576 319.914484875L288 527.616L288 397.836932625L288 397.836932625z" />
    <glyph glyph-name="search"
      unicode="&#xEA1E;"
      horiz-adv-x="576" d="M412.1829132505632 189.031163625L570.9647438755633 30.249333C577.9980740005633 23.21600175 578.0027765005633 11.817421875 570.9717942505633 4.7864385C563.9423566255632 -2.2429980000001 552.5421241255633 -2.2397354999999 545.5088997505633 4.793488875L386.7271163755633 163.57527225C345.7263350005633 128.405046375 292.4344977505633 107.155906875 234.1796588755633 107.155906875C104.7119380630633 107.155906875 -0.2423871244367 212.110232625 -0.2423871244367 341.577954C-0.2423871244367 471.0456748125 104.7119380630633 576 234.1796588755633 576C363.6473802505633 576 468.6017060005633 471.0456748125 468.6017060005633 341.577954C468.6017060005633 283.323430125 447.3527971255633 230.031856125 412.1829132505632 189.031163625zM233.7576128755633 144C343.1099933755633 144 431.7576128755633 232.6476195 431.7576128755633 342C431.7576128755633 451.3523805 343.1099933755633 540 233.7576128755633 540C124.4052323755633 540 35.7576128755633 451.3523805 35.7576128755633 342C35.7576128755633 232.6476195 124.4052323755633 144 233.7576128755633 144z" />
    <glyph glyph-name="spinner"
      unicode="&#xEA1F;"
      horiz-adv-x="576" d="M519.75 287.2215C519.75 294.982875 526.051125 301.284 533.8125 301.284C541.573875 301.284 547.875 294.982875 547.875 287.2215C547.875 279.460125 541.573875 273.159 533.8125 273.159C526.051125 273.159 519.75 279.460125 519.75 287.2215zM485.3295 172.12275C485.3295 182.0565 493.39575 190.12275 503.3295 190.12275C513.264375 190.12275 521.3295 182.0565 521.3295 172.12275C521.3295 162.187875 513.264375 154.12275 503.3295 154.12275C493.39575 154.12275 485.3295 162.187875 485.3295 172.12275zM396.673875 87.4035C396.673875 99.51075 406.504125 109.341 418.611375 109.341C430.718625 109.341 440.548875 99.51075 440.548875 87.4035C440.548875 75.29625 430.718625 65.466 418.611375 65.466C406.504125 65.466 396.673875 75.29625 396.673875 87.4035zM273.9375 56.25C273.9375 71.77275 286.5397500000001 84.375 302.0625 84.375C317.58525 84.375 330.1875 71.77275 330.1875 56.25C330.1875 40.72725 317.58525 28.125 302.0625 28.125C286.5397500000001 28.125 273.9375 40.72725 273.9375 56.25zM28.125 288C28.125 311.284125 47.028375 330.1875 70.3125 330.1875C93.596625 330.1875 112.5 311.284125 112.5 288C112.5 264.715875 93.596625 245.8125 70.3125 245.8125C47.028375 245.8125 28.125 264.715875 28.125 288zM55.125 405C55.125 430.767 76.0455 451.6875 101.8125 451.6875C127.5795 451.6875 148.5 430.767 148.5 405C148.5 379.233 127.5795 358.3125 101.8125 358.3125C76.0455 358.3125 55.125 379.233 55.125 405zM136.125 489.375C136.125 517.626 159.0615 540.5625 187.3125 540.5625C215.5635 540.5625 238.5 517.626 238.5 489.375C238.5 461.124 215.5635 438.1875 187.3125 438.1875C159.0615 438.1875 136.125 461.124 136.125 489.375zM152.888625 88.182C152.888625 106.18875 167.508 120.807 185.513625 120.807C203.520375 120.807 218.138625 106.18875 218.138625 88.182C218.138625 70.176375 203.520375 55.557 185.513625 55.557C167.508 55.557 152.888625 70.176375 152.888625 88.182zM63.108 172.90125C63.108 193.701375 79.99425 210.58875 100.7955 210.58875C121.595625 210.58875 138.483 193.701375 138.483 172.90125C138.483 152.101125 121.595625 135.21375 100.7955 135.21375C79.99425 135.21375 63.108 152.101125 63.108 172.90125zM245.8125 519.75C245.8125 550.7955 271.017 576 302.0625 576C333.108 576 358.3125 550.7955 358.3125 519.75C358.3125 488.7045 333.108 463.5 302.0625 463.5C271.017 463.5 245.8125 488.7045 245.8125 519.75z" />
    <glyph glyph-name="success"
      unicode="&#xEA20;"
      horiz-adv-x="576" d="M214.334125875 108L504 456.66861075L447.88300875 504L213.995226375 220.55314275L127.1444175 320.853114L72 272.37507975L214.334125875 108z" />
    <glyph glyph-name="trash"
      unicode="&#xEA21;"
      horiz-adv-x="576" d="M126 576L450 576L450 540L414 540L414 504L558 504L558 468L522 468L486 0L90 0L55.125 468L18 468L18 504L162 504L162 540L126 540L126 576zM198 540L198 504L378 504L378 540L198 540zM90 468L126 36L450 36L486 468L90 468zM198 396L234.019200375 396L234.019200375 108L198 108L198 396zM270 396L306.019200375 396L306.019200375 107.6399921250001L270 107.6399921250001L270 396zM342 396L378.019200375 396L378.019200375 107.6399921250001L342 107.6399921250001L342 396z" />
    <glyph glyph-name="triangle-down"
      unicode="&#xEA22;"
      horiz-adv-x="1036.8" d="M0 576L1036.8 576L518.4 0z" />
    <glyph glyph-name="triangle-up"
      unicode="&#xEA23;"
      horiz-adv-x="1036.8" d="M0 0L1036.8 0L518.4 576z" />
    <glyph glyph-name="undo"
      unicode="&#xEA24;"
      horiz-adv-x="576" d="M288 397.836932625C451.708102125 370.138190625 576 234.1985400000001 576 70.672665375C576 62.7920336249999 575.7113362499999 54.9754694999999 575.143509375 47.232C519.323364 148.941894375 413.044828875 221.49771075 288 234.678884625L288 112.212968625L-1e-13 319.914484875L288 527.616L288 397.836932625L288 397.836932625z" />
    <glyph glyph-name="user"
      unicode="&#xEA25;"
      horiz-adv-x="576" d="M540 72.5287500000001V0.5287500000001H504V72.5287500000001C504 132.7837500000001 467.92125 186.94125 412.16625 219.7575000000001C422.51625 227.0250000000001 432.1912500000001 235.1925000000001 441.07875 244.1250000000001C501.2212499999999 204.6375 540 142.47 540 72.5287500000001zM134.9325 244.125C74.79 204.6375 36 142.47 36 72.5287500000001V0.5287500000001H72V72.5287500000001C72 132.7837500000001 108.07875 186.94125 163.83375 219.7575000000001C153.48375 227.0250000000001 143.83125 235.1925000000001 134.92125 244.1250000000001zM288 252C367.5375 252 432 316.4625000000001 432 396S367.5375 540 288 540S144 475.5375 144 396S208.4625 252 288 252zM288 216C188.58375 216 108 296.58375 108 396S188.58375 576 288 576S468 495.41625 468 396S387.41625 216 288 216z" />
    <glyph glyph-name="users"
      unicode="&#xEA26;"
      horiz-adv-x="972" d="M135.140625 244.125C74.998125 204.6375 36.2081249999999 142.47 36.2081249999999 72.5287500000001V0.5287500000001H72.2081249999999V72.5287500000001C72.2081249999999 132.7837500000001 108.2868749999999 186.94125 164.041875 219.7575000000001C153.691875 227.0250000000001 144.0393749999999 235.1925000000001 135.1293749999999 244.1250000000001zM288.208125 252C367.7456249999999 252 432.208125 316.4625000000001 432.208125 396S367.7456249999999 540 288.208125 540S144.208125 475.5375 144.208125 396S208.670625 252 288.208125 252zM288.208125 216C188.791875 216 108.2081249999999 296.58375 108.2081249999999 396S188.791875 576 288.208125 576S468.2081249999999 495.41625 468.2081249999999 396S387.624375 216 288.208125 216zM935.7918749999998 72.5287500000001V0.5287500000001H899.7918749999999V72.5287500000001C899.7918749999999 132.7837500000001 863.7131249999998 186.94125 807.9581249999999 219.7575000000001C818.308125 227.0250000000001 827.983125 235.1925000000001 836.870625 244.1250000000001C897.013125 204.6375000000001 935.7918750000002 142.47 935.7918750000002 72.5287500000001zM526.8206250000001 195.6375C536.8556249999999 204.57 547.993125 212.65875 560.0418749999999 219.7575C549.691875 227.025 540.0393750000001 235.1925 531.129375 244.125C521.713125 237.9375 512.7918749999999 231.1875 504.4893749999999 223.9425C512.7581250000001 215.055 520.2393749999999 205.5825 526.8093749999998 195.62625zM540.2081249999999 72.5287500000001V0.5287500000001H504.2081249999999V72.5287500000001C504.2081249999999 132.7837500000001 468.1293749999999 186.94125 412.374375 219.7575000000001C422.724375 227.0250000000001 432.399375 235.1925000000001 441.286875 244.1250000000001C501.4293749999999 204.6375 540.2081249999999 142.47 540.2081249999999 72.5287500000001zM684.2081249999999 252C763.745625 252 828.2081249999999 316.4625000000001 828.2081249999999 396S763.745625 540 684.2081249999999 540S540.2081249999999 475.5375 540.2081249999999 396S604.670625 252 684.2081249999999 252zM684.2081249999999 216C584.7918749999999 216 504.2081249999999 296.58375 504.2081249999999 396S584.7918749999999 576 684.2081249999999 576S864.2081249999999 495.41625 864.2081249999999 396S783.6243749999999 216 684.2081249999999 216z" />
    <glyph glyph-name="warning"
      unicode="&#xEA27;"
      horiz-adv-x="576" d="M342 407.547169875C342 357.433711875 340.325598375 311.547378375 336.9767445 269.886792375C333.627890625 228.226206375 329.441886 186.26436225 324.418604625 144L252.418604625 144C246.8371815 186.26436225 242.372109375 228.37714875 239.0232555 270.3396228750001C235.674401625 312.302097 234 358.037488125 234 407.547169875L234 576L342 576L342 407.547169875zM351 62.603773875C351 44.11311525 344.962560375 29.056662 332.8875 17.433961875C320.812439625 5.811262875 305.85008925 0 288 0C270.674913375 0 255.84381225 5.811262875 243.50625 17.433961875C231.16868775 29.056662 225 44.11311525 225 62.603773875C225 81.0944325 231.16868775 96.282959625 243.50625 108.169810875C255.84381225 120.0566632500001 270.674913375 126 288 126C305.85008925 126 320.812439625 120.0566632500001 332.8875 108.169810875C344.962560375 96.282959625 351 81.0944325 351 62.603773875L351 62.603773875z" />
  </font>
</defs>
</svg>
